<svg xmlns="http://www.w3.org/2000/svg" viewBox="0 0 800 400" width="800" height="400">
  <style>
    .wave {
      animation: wave 8s ease-in-out infinite alternate;
      transform-origin: center;
    }
    
    @keyframes wave {
      0% { transform: translateY(0); }
      100% { transform: translateY(-20px); }
    }
    
    .wave:nth-child(2) {
      animation-delay: 0.5s;
    }
    
    .wave:nth-child(3) {
      animation-delay: 1s;
    }
  </style>
  
  <rect width="800" height="400" fill="#1A1A1A"/>
  
  <path class="wave" fill="#7B68EE" opacity="0.3" d="M0,192L48,208C96,224,192,256,288,261.3C384,267,480,245,576,234.7C672,224,768,224,864,213.3C960,203,1056,181,1152,181.3C1248,181,1344,203,1392,213.3L1440,224L1440,320L1392,320C1344,320,1248,320,1152,320C1056,320,960,320,864,320C768,320,672,320,576,320C480,320,384,320,288,320C192,320,96,320,48,320L0,320Z"/>
  
  <path class="wave" fill="#7B68EE" opacity="0.5" d="M0,224L48,224C96,224,192,224,288,234.7C384,245,480,267,576,266.7C672,267,768,245,864,240C960,235,1056,245,1152,250.7C1248,256,1344,256,1392,256L1440,256L1440,320L1392,320C1344,320,1248,320,1152,320C1056,320,960,320,864,320C768,320,672,320,576,320C480,320,384,320,288,320C192,320,96,320,48,320L0,320Z"/>
  
  <path class="wave" fill="#7B68EE" opacity="0.7" d="M0,256L48,256C96,256,192,256,288,261.3C384,267,480,277,576,277.3C672,277,768,267,864,250.7C960,235,1056,213,1152,213.3C1248,213,1344,235,1392,245.3L1440,256L1440,320L1392,320C1344,320,1248,320,1152,320C1056,320,960,320,864,320C768,320,672,320,576,320C480,320,384,320,288,320C192,320,96,320,48,320L0,320Z"/>
</svg>
